{
    "asset" : {
        "generator" : "Khronos glTF Blender I/O v3.2.40",
        "version" : "2.0"
    },
    "scene" : 0,
    "scenes" : [
        {
            "name" : "Scene",
            "nodes" : [
                0
            ]
        }
    ],
    "nodes" : [
        {
            "mesh" : 0,
            "name" : "Cyborg_Weapon.001",
            "rotation" : [
                0.7071068286895752,
                0,
                0,
                0.7071067094802856
            ]
        }
    ],
    "materials" : [
        {
            "doubleSided" : true,
            "name" : "StingrayPBS1SG.001",
            "pbrMetallicRoughness" : {
                "baseColorFactor" : [
                    0.800000011920929,
                    0.800000011920929,
                    0.800000011920929,
                    1
                ],
                "metallicFactor" : 0,
                "roughnessFactor" : 0.5
            }
        }
    ],
    "meshes" : [
        {
            "name" : "Cyborg_Weapon.001",
            "primitives" : [
                {
                    "attributes" : {
                        "POSITION" : 0,
                        "NORMAL" : 1,
                        "TEXCOORD_0" : 2
                    },
                    "indices" : 3,
                    "material" : 0
                }
            ]
        }
    ],
    "accessors" : [
        {
            "bufferView" : 0,
            "componentType" : 5126,
            "count" : 6570,
            "max" : [
                0.18387499451637268,
                0.6280480027198792,
                0.25202301144599915
            ],
            "min" : [
                -0.18387499451637268,
                -0.6280480027198792,
                -0.25202301144599915
            ],
            "type" : "VEC3"
        },
        {
            "bufferView" : 1,
            "componentType" : 5126,
            "count" : 6570,
            "type" : "VEC3"
        },
        {
            "bufferView" : 2,
            "componentType" : 5126,
            "count" : 6570,
            "type" : "VEC2"
        },
        {
            "bufferView" : 3,
            "componentType" : 5123,
            "count" : 27858,
            "type" : "SCALAR"
        }
    ],
    "bufferViews" : [
        {
            "buffer" : 0,
            "byteLength" : 78840,
            "byteOffset" : 0
        },
        {
            "buffer" : 0,
            "byteLength" : 78840,
            "byteOffset" : 78840
        },
        {
            "buffer" : 0,
            "byteLength" : 52560,
            "byteOffset" : 157680
        },
        {
            "buffer" : 0,
            "byteLength" : 55716,
            "byteOffset" : 210240
        }
    ],
    "buffers" : [
        {
            "byteLength" : 265956,
            "uri" : "data:application/octet-stream;base64,"
        }
    ]
}
